<svg xmlns="http://www.w3.org/2000/svg" xmlns:xlink="http://www.w3.org/1999/xlink" width="66.121" height="40" viewBox="0 0 66.121 40"><defs><style>.a,.i{fill:#fff;}.b{fill:#dbd9d9;}.c{fill:#b5b1b1;}.d,.e,.f,.j,.l{fill:none;}.d{stroke:#b5b1b1;}.d,.e,.f{stroke-linecap:round;}.e{stroke:#137eb2;stroke-width:2px;}.f,.h{stroke:#707070;}.g{clip-path:url(#a);}.h{fill:url(#b);}.i{stroke:#fff;stroke-linejoin:round;}.j{stroke:#020b50;stroke-width:3px;stroke-dasharray:1.5 2;}.k{stroke:none;}</style><clipPath id="a"><path class="a" d="M2,23a2,2,0,0,1-2-2V12a2,2,0,0,1,2-2H2V8H2A8,8,0,0,1,18,8L15,8A5,5,0,1,0,5,8H5v2H18a2,2,0,0,1,2,2v9a2,2,0,0,1-2,2Z"/></clipPath><linearGradient id="b" y1="0.531" x2="1" y2="0.537" gradientUnits="objectBoundingBox"><stop offset="0" stop-color="#19b0dc"/><stop offset="1" stop-color="#020b50"/></linearGradient></defs><g transform="translate(-180 -548)"><circle class="b" cx="15" cy="15" r="15" transform="translate(180 548)"/><rect class="a" width="40.186" height="24" rx="4" transform="translate(192 552)"/><path class="c" d="M25.51,53.033a4.741,4.741,0,0,0-.082-6.583,4.554,4.554,0,0,0-6.475,0,4.741,4.741,0,0,0-.082,6.583,7.162,7.162,0,0,0-3.7,6.286,1.128,1.128,0,1,0,2.257,0,4.764,4.764,0,1,1,9.527,0,1.128,1.128,0,1,0,2.257,0A7.162,7.162,0,0,0,25.51,53.033Zm-5.669-3.239a2.352,2.352,0,1,1,2.351,2.391A2.371,2.371,0,0,1,19.841,49.793Z" transform="translate(180.876 510.885)"/><g transform="translate(213.621 557.97)"><line class="d" x2="12.266"/><line class="d" x2="12.266" transform="translate(0 4)"/><line class="d" x2="4.055" transform="translate(0 12)"/><line class="d" x2="6.055" transform="translate(0 8)"/></g><path class="e" d="M1867.882,1258v-8a3.847,3.847,0,0,0-4.188-4h-33.506a3.95,3.95,0,0,0-4.188,4v16a3.9,3.9,0,0,0,4.188,4h15.858" transform="translate(-1633.898 -694)"/><line class="f" y2="20" transform="translate(188 563.915)"/><line class="f" y2="14" transform="translate(238.186 550.5)"/><g class="g" transform="translate(216.271 565)"><g class="h" transform="translate(-4 -3)"><rect class="k" width="27" height="30"/><rect class="l" x="0.5" y="0.5" width="26" height="29"/></g></g><path class="i" d="M1.5,3.5v0ZM0,1.5A1.5,1.5,0,1,1,1.5,3,1.5,1.5,0,0,1,0,1.5Z" transform="translate(224.698 580)"/><path class="j" d="M0,0A6.5,6.5,0,0,1,6.5,6.5" transform="translate(239.404 569.97) rotate(45)"/></g></svg>