<svg xmlns="http://www.w3.org/2000/svg" xmlns:xlink="http://www.w3.org/1999/xlink" width="66.002" height="41.387" viewBox="0 0 66.002 41.387"><defs><style>.a,.f,.g,.i{fill:none;}.a{stroke:#020b50;}.a,.g{stroke-linecap:round;}.a,.f,.g{stroke-width:2px;}.b,.d{fill:#020b50;}.c{fill:#fff;}.d,.f,.g{stroke:#fff;}.e{fill:url(#a);}.h{stroke:none;}</style><linearGradient id="a" x1="0.015" y1="0.477" x2="0.988" y2="0.463" gradientUnits="objectBoundingBox"><stop offset="0" stop-color="#19b0dc"/><stop offset="1" stop-color="#020b50"/></linearGradient></defs><g transform="translate(-646.998 -592.5)"><path class="a" d="M1890,1252.564c0-4.257-2.8-6.564-6.4-6.564h-51.2c-6.454,0-6.4,6.564-6.4,6.564v26.258s-.157,6.565,6.4,6.565,25.6-.026,25.6-.026" transform="translate(-1178 -652.5)"/><rect class="b" width="37" height="30.5" rx="4" transform="translate(652 599)"/><rect class="c" width="33" height="22" rx="2" transform="translate(654 604.537)"/><g transform="translate(656 608.239)"><rect class="b" width="6" height="6" rx="1"/><rect class="b" width="6" height="6" rx="1" transform="translate(0 9.056)"/></g><g transform="translate(667 608.239)"><rect class="b" width="6" height="6" rx="1"/><rect class="b" width="6" height="6" rx="1" transform="translate(0 9.056)"/></g><g transform="translate(678 608.239)"><rect class="b" width="6" height="6" rx="1"/><rect class="b" width="6" height="6" rx="1" transform="translate(0 9.056)"/></g><rect class="b" width="6" height="6" rx="1" transform="translate(686 607.144)"/><rect class="b" width="6" height="6" rx="1" transform="translate(686 616.336)"/><g transform="translate(659 595)"><g class="d"><rect class="h" width="4" height="7" rx="2"/><rect class="i" x="0.5" y="0.5" width="3" height="6" rx="1.5"/></g><g class="d" transform="translate(18)"><rect class="h" width="4" height="7" rx="2"/><rect class="i" x="0.5" y="0.5" width="3" height="6" rx="1.5"/></g></g><g transform="translate(682 603.5)"><rect class="e" width="30" height="30" rx="2"/><g transform="translate(4 4)"><g class="f"><circle class="h" cx="11" cy="11" r="11"/><circle class="i" cx="11" cy="11" r="10"/></g><line class="g" y2="6" transform="translate(11 5)"/><line class="g" x1="6" transform="translate(11 11.5)"/></g></g></g></svg>