<svg xmlns="http://www.w3.org/2000/svg" xmlns:xlink="http://www.w3.org/1999/xlink" width="64" height="40" viewBox="0 0 64 40"><defs><style>.a{fill:#fff;}.b{fill:#dbd9d9;}.c{fill:#b5b1b1;}.d,.e,.h,.i{fill:none;stroke-linecap:round;}.d{stroke:#b5b1b1;}.e{stroke:#137eb2;stroke-width:2px;}.f{fill:url(#a);}.g{clip-path:url(#b);}.h,.i{stroke:#707070;}.i{stroke-dasharray:2 3;}</style><linearGradient id="a" x1="0.5" x2="0.5" y2="1" gradientUnits="objectBoundingBox"><stop offset="0" stop-color="#19b0dc"/><stop offset="1" stop-color="#020b50"/></linearGradient><clipPath id="b"><path class="a" d="M-1085-860.414l-5.171-5.171A2,2,0,0,1-1088.76-869h3.172v-7a2,2,0,0,1,2-2,2,2,0,0,1,2,2v7h3.172a2,2,0,0,1,1.414,3.415l-5.172,5.171a1.994,1.994,0,0,1-1.414.586A1.994,1.994,0,0,1-1085-860.414Z" transform="translate(1885.764 1261)"/></clipPath></defs><g transform="translate(-340 -548)"><circle class="b" cx="15" cy="15" r="15" transform="translate(340 548)"/><rect class="a" width="40" height="24" rx="4" transform="translate(352 552)"/><path class="c" d="M25.48,53.049a4.768,4.768,0,0,0-.082-6.6,4.525,4.525,0,0,0-6.457,0,4.768,4.768,0,0,0-.082,6.6,7.183,7.183,0,0,0-3.69,6.3,1.125,1.125,0,1,0,2.25,0,4.751,4.751,0,1,1,9.5,0,1.125,1.125,0,1,0,2.25,0A7.183,7.183,0,0,0,25.48,53.049ZM19.828,49.8a2.345,2.345,0,1,1,2.345,2.4A2.371,2.371,0,0,1,19.828,49.8Z" transform="translate(340.83 510.902)"/><g transform="translate(-264 219.5)"><line class="d" x2="12.266" transform="translate(637.5 338.5)"/><line class="d" x2="12.266" transform="translate(637.5 342.5)"/><line class="d" x2="12.266" transform="translate(637.5 350.5)"/><line class="d" x2="12.266" transform="translate(637.5 346.5)"/></g><path class="e" d="M1867.882,1256.073V1250a3.847,3.847,0,0,0-4.188-4h-33.506a3.95,3.95,0,0,0-4.188,4v16a3.9,3.9,0,0,0,4.188,4H1858" transform="translate(-1474 -694)"/><path class="f" d="M-1075.5-1761h-17a1.5,1.5,0,0,1-1.5-1.5v-5a1.5,1.5,0,0,1,1.5-1.5,1.5,1.5,0,0,1,1.5,1.5v3.5h14v-3.5a1.5,1.5,0,0,1,1.5-1.5,1.5,1.5,0,0,1,1.5,1.5v5a1.5,1.5,0,0,1-1.5,1.5Z" transform="translate(1478 2349)"/><g class="g" transform="translate(-408.293 181)"><rect class="f" width="20" height="24" transform="translate(792 380)"/></g><line class="h" y2="20" transform="translate(348 564)"/><line class="h" y2="12" transform="translate(398 560)"/><line class="i" y2="6" transform="translate(398 552)"/></g></svg>