<svg xmlns="http://www.w3.org/2000/svg" xmlns:xlink="http://www.w3.org/1999/xlink" width="66.002" height="42" viewBox="0 0 66.002 42"><defs><style>.a,.e{fill:none;stroke:#020b50;stroke-linecap:round;}.a{stroke-width:2px;}.b{fill:url(#a);}.c{fill:#fff;}.d{fill:#19b0dc;}.e{stroke-width:4px;}</style><linearGradient id="a" x1="0.015" y1="0.477" x2="0.988" y2="0.463" gradientUnits="objectBoundingBox"><stop offset="0" stop-color="#19b0dc"/><stop offset="1" stop-color="#020b50"/></linearGradient></defs><g transform="translate(-726.998 -655.5)"><path class="a" d="M1890,1252.667c0-4.323-2.8-6.667-6.4-6.667h-51.2c-6.454,0-6.4,6.667-6.4,6.667v26.667s-.157,6.667,6.4,6.667H1866" transform="translate(-1098 -589.5)"/><rect class="b" width="22" height="30" rx="2" transform="translate(770 666)"/><path class="c" d="M6.731,0A7.042,7.042,0,0,0,1.608,1.8,5.946,5.946,0,0,0,0,5.287l2.725.354a3.3,3.3,0,0,1,.845-1.88A4.047,4.047,0,0,1,6.731,2.725a4.808,4.808,0,0,1,3.325.927,2.278,2.278,0,0,1,.763,1.8c0,2.262-.927,2.889-2.289,4.088a7.767,7.767,0,0,0-3.161,6.131v.681H8.094v-.681c0-2.262.845-2.889,2.207-4.088s3.243-2.943,3.243-6.131a5.235,5.235,0,0,0-1.608-3.842A7.532,7.532,0,0,0,6.731,0ZM5.368,19.076V21.8H8.094V19.076Z" transform="translate(774 670)"/><g transform="translate(0 0.324)"><path class="d" d="M34.147,59.722A8.764,8.764,0,0,0,34,47.589a8.334,8.334,0,0,0-11.885,0,8.764,8.764,0,0,0-.15,12.133A13.209,13.209,0,0,0,15.17,71.308a2.071,2.071,0,1,0,4.142,0,8.745,8.745,0,1,1,17.486,0,2.071,2.071,0,1,0,4.142,0A13.209,13.209,0,0,0,34.147,59.722Zm-10.4-5.971a4.317,4.317,0,1,1,4.316,4.406A4.362,4.362,0,0,1,23.743,53.751Z" transform="translate(717.429 614.577)"/><g transform="translate(-59.016 -44.197)"><line class="e" y2="20.117" transform="translate(815.386 716.197)"/><line class="e" y2="20.117" transform="translate(825.617 726.425) rotate(90)"/></g></g></g></svg>