<svg xmlns="http://www.w3.org/2000/svg" xmlns:xlink="http://www.w3.org/1999/xlink" width="64" height="40" viewBox="0 0 64 40"><defs><style>.a{fill:#dbd9d9;}.b,.h{fill:#fff;}.c{fill:#b5b1b1;}.d,.e,.f{fill:none;}.d{stroke:#137eb2;stroke-width:2px;}.d,.e{stroke-linecap:round;}.e{stroke:#707070;}.f{stroke:#fff;stroke-linejoin:round;}.g{fill:url(#a);}.h{font-size:19px;font-family:Arial-BoldMT, Arial;font-weight:700;}</style><linearGradient id="a" y1="0.5" x2="1" y2="0.5" gradientUnits="objectBoundingBox"><stop offset="0" stop-color="#19b0dc"/><stop offset="1" stop-color="#020b50"/></linearGradient></defs><g transform="translate(-100 -548)"><circle class="a" cx="15" cy="15" r="15" transform="translate(100 548)"/><rect class="b" width="40.186" height="24" rx="4" transform="translate(112 552)"/><path class="c" d="M25.51,53.033a4.741,4.741,0,0,0-.082-6.583,4.554,4.554,0,0,0-6.475,0,4.741,4.741,0,0,0-.082,6.583,7.162,7.162,0,0,0-3.7,6.286,1.128,1.128,0,1,0,2.257,0,4.764,4.764,0,1,1,9.527,0,1.128,1.128,0,1,0,2.257,0A7.162,7.162,0,0,0,25.51,53.033Zm-5.669-3.239a2.352,2.352,0,1,1,2.351,2.391A2.371,2.371,0,0,1,19.841,49.793Z" transform="translate(100.876 510.885)"/><path class="d" d="M1867.882,1255.547V1250a3.847,3.847,0,0,0-4.188-4h-33.506a3.95,3.95,0,0,0-4.188,4v16a3.9,3.9,0,0,0,4.188,4h13.721" transform="translate(-1713.898 -694)"/><line class="e" y2="20" transform="translate(108 563.916)"/><path class="f" d="M1.5,3.5v0ZM0,1.5A1.5,1.5,0,1,1,1.5,3,1.5,1.5,0,0,1,0,1.5Z" transform="translate(144.698 580)"/><rect class="g" width="31" height="24" rx="4" transform="translate(133 564)"/><text class="h" transform="translate(148 584)"><tspan x="-10.567" y="0">16</tspan></text><line class="e" y2="8" transform="translate(160 552)"/></g></svg>