<svg xmlns="http://www.w3.org/2000/svg" width="21" height="18" viewBox="0 0 21 18"><defs><style>.a,.d{fill:none;}.a{stroke:#fff;}.b{fill:#fff;}.c{stroke:none;}</style></defs><g class="a" transform="translate(0 6)"><rect class="c" width="12" height="12" rx="2"/><rect class="d" x="0.5" y="0.5" width="11" height="11" rx="1.5"/></g><g class="a" transform="translate(8)"><rect class="c" width="13" height="13" rx="2"/><rect class="d" x="0.5" y="0.5" width="12" height="12" rx="1.5"/></g><path class="b" d="M.885-7.438l-.741.68a2,2,0,0,0,1.712.825,1.518,1.518,0,0,0,1.689-1.5v-.046A.992.992,0,0,0,3.92-7.4a1.16,1.16,0,0,0,.344-.054v1.8H5.341v-4.3h.8v-.833H3.668v.833h.6v1.582a1.3,1.3,0,0,1-.611.13,1.339,1.339,0,0,1-.611-.153.16.16,0,0,1-.046-.031H2.987a.883.883,0,0,0-.26-.092v-.031a1.053,1.053,0,0,0,.558-.986,1.321,1.321,0,0,0-1.49-1.292,1.634,1.634,0,0,0-1.361.642l.673.634a.728.728,0,0,1,.657-.382.49.49,0,0,1,.535.5c0,.344-.191.589-.657.589H1.375v.894h.413c.489,0,.726.2.726.527a.576.576,0,0,1-.642.581A1.146,1.146,0,0,1,.885-7.438Z" transform="translate(12.28 14.444)"/><path class="b" d="M5.193,11.587c-.112-.388-.25-1.064-.25-1.064H4.927s-.138.676-.25,1.064l-.356,1.2H5.543Zm-2.988,3.2L4.049,9.368a.383.383,0,0,1,.365-.26H5.456a.391.391,0,0,1,.365.26l1.843,5.421a.386.386,0,0,1-.365.51H6.565a.385.385,0,0,1-.369-.276L5.9,14H3.965L3.674,15.02A.388.388,0,0,1,3.3,15.3H2.571a.387.387,0,0,1-.365-.51Z" transform="translate(0.815 -0.109)"/></svg>