<svg xmlns="http://www.w3.org/2000/svg" xmlns:xlink="http://www.w3.org/1999/xlink" width="66.002" height="41.27" viewBox="0 0 66.002 41.27"><defs><style>.a{fill:#020b50;}.b,.d{fill:#fff;}.c,.e,.h{fill:none;}.c,.d,.e{stroke:#020b50;}.c,.e{stroke-linecap:round;}.c{stroke-linejoin:round;}.e{stroke-width:2px;}.f{fill:url(#a);}.g{stroke:none;}</style><linearGradient id="a" x1="0.015" y1="0.477" x2="0.988" y2="0.463" gradientUnits="objectBoundingBox"><stop offset="0" stop-color="#19b0dc"/><stop offset="1" stop-color="#020b50"/></linearGradient></defs><g transform="translate(-238.998 -575)"><g transform="translate(-46.099 -57.801)"><path class="a" d="M1452.6,2365.942V2337.9h13.974v28.045" transform="translate(-1151.704 -1698.483)"/><rect class="b" width="4" height="4" rx="1" transform="translate(303.001 641.563)"/><rect class="b" width="4" height="4" rx="1" transform="translate(309.001 641.563)"/><rect class="b" width="4" height="4" rx="1" transform="translate(303.001 647.563)"/><rect class="b" width="4" height="4" rx="1" transform="translate(309.001 647.563)"/><rect class="b" width="4" height="4" rx="1" transform="translate(303.001 653.563)"/><rect class="b" width="4" height="4" rx="1" transform="translate(309.001 653.563)"/><path class="b" d="M1456.721,2366.293v-7.7h4.758v7.7" transform="translate(-1151.214 -1698.834)"/><path class="c" d="M1451.964,2346H1445.2v17.2" transform="translate(-1151.999 -1700.438)"/><g class="d" transform="translate(295.001 647.563)"><rect class="g" width="4" height="4" rx="1"/><rect class="h" x="0.5" y="0.5" width="3" height="3" rx="0.5"/></g><g class="d" transform="translate(295.001 653.563)"><rect class="g" width="4" height="4" rx="1"/><rect class="h" x="0.5" y="0.5" width="3" height="3" rx="0.5"/></g><path class="c" d="M1445.2,2346h6.761v17.2" transform="translate(-1128.999 -1700.438)"/><g class="d" transform="translate(317.167 647.563)"><rect class="g" width="4" height="4" rx="1"/><rect class="h" x="0.5" y="0.5" width="3" height="3" rx="0.5"/></g><g class="d" transform="translate(317.167 653.563)"><rect class="g" width="4" height="4" rx="1"/><rect class="h" x="0.5" y="0.5" width="3" height="3" rx="0.5"/></g></g><path class="e" d="M1890,1252.545c0-4.244-2.8-6.545-6.4-6.545h-51.2c-6.454,0-6.4,6.545-6.4,6.545v26.18s-.157,6.545,6.4,6.545H1866" transform="translate(-1586 -670)"/><rect class="f" width="22" height="30" rx="2" transform="translate(282 586)"/><g transform="translate(145 -145)"><path class="b" d="M-2478-555.621h0a41.223,41.223,0,0,1-3.5-4.082c-1.6-2.139-3.5-5.214-3.5-7.716a7.586,7.586,0,0,1,2.188-5.607A6.924,6.924,0,0,1-2478-575a6.924,6.924,0,0,1,4.813,1.973A7.586,7.586,0,0,1-2471-567.42c0,2.5-1.9,5.577-3.5,7.716a41.223,41.223,0,0,1-3.5,4.082Zm0-17a4.005,4.005,0,0,0-4,4,4,4,0,0,0,4,4,4,4,0,0,0,4-4A4,4,0,0,0-2478-572.621Z" transform="translate(2626 1311)"/></g></g></svg>