<svg xmlns="http://www.w3.org/2000/svg" xmlns:xlink="http://www.w3.org/1999/xlink" width="65.001" height="41" viewBox="0 0 65.001 41"><defs><style>.a{fill:#19b0dc;}.b{fill:#dbd9d9;}.c,.f,.g,.j,.k,.l{fill:none;}.c,.f,.g{stroke:#707070;}.c,.f,.g,.j,.k{stroke-linecap:round;}.c{stroke-dasharray:7;}.d{clip-path:url(#a);}.e{fill:url(#b);}.f{stroke-dasharray:10 3;}.h{fill:#fff;}.i{fill:#b5b1b1;}.j{stroke:#b5b1b1;}.k{stroke:#137eb2;stroke-width:2px;}.l{stroke:#020b50;stroke-width:3px;stroke-dasharray:1 2;}</style><clipPath id="a"><path class="a" d="M-333.519-12234.679l7.932-4.043a3.322,3.322,0,0,1,2.785,0c1.839.616,9.794,2.983,9.794,2.983s2.421.783,1.729,2.639-1.948,1.874-3.44,1.42-3.659-1.052-3.659-1.052-1.608-.275-1.724.358.025,1.167,1.674,1.638,6.632,1.914,6.632,1.914a4.431,4.431,0,0,0,3.008-.192c1.96-.67,12.984-3.579,12.984-3.579s1.66-.637,2.1.22.126,2.106-1.372,2.888-14.533,6.724-14.533,6.724a5.066,5.066,0,0,1-4.578,0c-2.639-1.193-9.612-3.22-9.612-3.22s-.568-.355-2.084.2a32.432,32.432,0,0,0-3.212,1.452Z" transform="translate(333.519 12238.999)"/></clipPath><linearGradient id="b" y1="0.532" x2="1" y2="0.532" gradientUnits="objectBoundingBox"><stop offset="0" stop-color="#19b0dc"/><stop offset="1" stop-color="#020b50"/></linearGradient></defs><g transform="translate(-420 -547.563)"><circle class="b" cx="15" cy="15" r="15" transform="translate(431.169 557.563)"/><path class="c" d="M0,0A14.66,14.66,0,0,1,9.913,13.923" transform="translate(428.542 570.243) rotate(-110)"/><g class="d" transform="translate(420 571.793)"><rect class="e" width="47" height="20" transform="translate(-2 -1.614)"/></g><path class="f" d="M0,0" transform="matrix(-0.839, -0.545, 0.545, -0.839, 430.726, 583.909)"/><path class="g" d="M0,0A14.66,14.66,0,0,1,9.913,13.923" transform="matrix(0.545, 0.839, -0.839, 0.545, 464.031, 570.845)"/><g transform="translate(441.631 548.563)"><rect class="h" width="41" height="24" rx="4" transform="translate(0 0.438)"/><path class="i" d="M25.48,53.049a4.768,4.768,0,0,0-.082-6.6,4.525,4.525,0,0,0-6.457,0,4.768,4.768,0,0,0-.082,6.6,7.183,7.183,0,0,0-3.69,6.3,1.125,1.125,0,1,0,2.25,0,4.751,4.751,0,1,1,9.5,0,1.125,1.125,0,1,0,2.25,0A7.183,7.183,0,0,0,25.48,53.049ZM19.828,49.8a2.345,2.345,0,1,1,2.345,2.4A2.371,2.371,0,0,1,19.828,49.8Z" transform="translate(-11.17 -40.661)"/><g transform="translate(21.5 6.438)"><line class="j" x2="12.266"/><line class="j" x2="12.266" transform="translate(0 4)"/><line class="j" x2="12.266" transform="translate(0 12)"/><line class="j" x2="12.266" transform="translate(0 8)"/></g><path class="k" d="M1826,1262.525v-12.5c0-2.609,1.85-4.023,4.237-4.023h33.9a3.981,3.981,0,0,1,4.237,4.023v16.092a3.927,3.927,0,0,1-4.237,4.023H1836" transform="translate(-1826 -1246)"/></g><path class="l" d="M0,0A6.5,6.5,0,0,1,6.5,6.5" transform="matrix(0.966, -0.259, 0.259, 0.966, 439.566, 572.341)"/></g></svg>