<svg xmlns="http://www.w3.org/2000/svg" xmlns:xlink="http://www.w3.org/1999/xlink" width="66.002" height="42" viewBox="0 0 66.002 42"><defs><style>.a,.e,.f{fill:none;stroke-linecap:round;}.a{stroke:#020b50;}.a,.f{stroke-width:2px;}.b{fill:url(#a);}.c{fill:#fff;}.d{fill:#b5b1b1;}.e{stroke:#b5b1b1;}.f{stroke:#137eb2;}</style><linearGradient id="a" x1="0.015" y1="0.477" x2="0.988" y2="0.463" gradientUnits="objectBoundingBox"><stop offset="0" stop-color="#19b0dc"/><stop offset="1" stop-color="#020b50"/></linearGradient></defs><g transform="translate(-726.998 -711.5)"><path class="a" d="M1890,1252.667c0-4.323-2.8-6.667-6.4-6.667h-51.2c-6.454,0-6.4,6.667-6.4,6.667v26.667s-.157,6.667,6.4,6.667H1866" transform="translate(-1098 -533.5)"/><rect class="b" width="22" height="30" rx="2" transform="translate(770 721.5)"/><path class="c" d="M6.731,0A7.042,7.042,0,0,0,1.608,1.8,5.946,5.946,0,0,0,0,5.287l2.725.354a3.3,3.3,0,0,1,.845-1.88A4.047,4.047,0,0,1,6.731,2.725a4.808,4.808,0,0,1,3.325.927,2.278,2.278,0,0,1,.763,1.8c0,2.262-.927,2.889-2.289,4.088a7.767,7.767,0,0,0-3.161,6.131v.681H8.094v-.681c0-2.262.845-2.889,2.207-4.088s3.243-2.943,3.243-6.131a5.235,5.235,0,0,0-1.608-3.842A7.532,7.532,0,0,0,6.731,0ZM5.368,19.076V21.8H8.094V19.076Z" transform="translate(774 725.5)"/><g transform="translate(-165.836 129)"><path class="d" d="M25.466,53.033a4.755,4.755,0,0,0-.081-6.583,4.522,4.522,0,0,0-6.448,0,4.755,4.755,0,0,0-.081,6.583,7.167,7.167,0,0,0-3.685,6.286,1.124,1.124,0,1,0,2.247,0,4.745,4.745,0,1,1,9.487,0,1.124,1.124,0,1,0,2.247,0A7.167,7.167,0,0,0,25.466,53.033Zm-5.645-3.239a2.342,2.342,0,1,1,2.341,2.391A2.366,2.366,0,0,1,19.821,49.793Z" transform="translate(888.809 546.885)"/><g transform="translate(921.445 593.97)"><line class="e" x2="12.266"/><line class="e" x2="12.266" transform="translate(0 4)"/><line class="e" x2="12.266" transform="translate(0 12)"/><line class="e" x2="12.266" transform="translate(0 8)"/></g><path class="f" d="M1863.694,1246h-33.506a3.95,3.95,0,0,0-4.188,4v16a3.9,3.9,0,0,0,4.188,4h29.694" transform="translate(-926.046 -658)"/></g></g></svg>