<svg xmlns="http://www.w3.org/2000/svg" xmlns:xlink="http://www.w3.org/1999/xlink" width="64.5" height="40.624" viewBox="0 0 64.5 40.624"><defs><style>.a,.b{fill:#5c5958;}.a{stroke:#707070;}.a,.d,.h,.j,.k{stroke-linecap:round;}.c{clip-path:url(#a);}.d,.f,.h,.j,.k{fill:none;}.e{clip-path:url(#b);}.g{clip-path:url(#c);}.h{stroke:#5c5958;stroke-width:2px;}.i{fill:url(#d);}.j,.k{stroke:#137eb2;}.k{stroke-linejoin:round;}.l{fill:#fff;font-size:12px;font-family:SegoeUI-Bold, Segoe UI;font-weight:700;}.m,.n{stroke:none;}.n{fill:#5c5958;}</style><clipPath id="a"><path class="a" d="M0,0,17.216.048l.048,17.216L.048,17.216Z"/></clipPath><clipPath id="b"><path class="b" d="M0,0,17.216.048l.048,17.216L.048,17.216Z"/></clipPath><clipPath id="c"><path class="b" d="M0,0,17.216.048l.048,17.216L.048,17.216Z" transform="translate(0 0)"/></clipPath><linearGradient id="d" x1="0.015" y1="0.477" x2="0.988" y2="0.463" gradientUnits="objectBoundingBox"><stop offset="0" stop-color="#19b0dc"/><stop offset="1" stop-color="#020b50"/></linearGradient></defs><g transform="translate(-547.5 -594.916)"><g transform="translate(548 595.039)"><g transform="translate(0 0)"><g transform="translate(39.997 9.829) rotate(108)"><g class="c" transform="translate(14.249 0)"><g class="d" transform="translate(-12.254 2.463)"><path class="m" d="M13.49,0A13.618,13.618,0,0,1,27.055,13.565a13.437,13.437,0,0,1-13.489,13.49A13.618,13.618,0,0,1,0,13.49,13.437,13.437,0,0,1,13.49,0Z"/><path class="n" d="M 13.45186519622803 2.000768661499023 C 10.38167572021484 2.000768661499023 7.500534057617188 3.194389343261719 5.339204788208008 5.361740112304688 C 3.177864074707031 7.529088973999023 1.992275238037109 10.41393852233887 2.000804901123047 13.48488903045654 C 2.018505096435547 19.84704971313477 7.208835601806641 25.03738975524902 13.57163524627686 25.05500984191895 L 13.60364437103271 25.05504989624023 C 16.67384338378906 25.05504989624023 19.55497360229492 23.86142921447754 21.7163143157959 21.6940803527832 C 23.87763404846191 19.52672958374023 25.06323432922363 16.64188003540039 25.05469512939453 13.57093906402588 C 25.0370044708252 7.208768844604492 19.8466854095459 2.018428802490234 13.48387432098389 2.000808715820313 L 13.45186519622803 2.000768661499023 M 13.45186424255371 0.000766754150390625 C 13.46462249755859 0.000766754150390625 13.47736740112305 0.0007839202880859375 13.49013519287109 0.000820159912109375 C 20.96085548400879 0.02150917053222656 27.03391456604004 6.094570159912109 27.05468559265137 13.56537914276123 C 27.07542991638184 21.02341079711914 21.05670166015625 27.05505180358887 13.60364532470703 27.05505180358887 C 13.59088706970215 27.05505180358887 13.5781421661377 27.05503463745117 13.56537437438965 27.05499839782715 C 6.094654083251953 27.03430938720703 0.02159500122070313 20.96125030517578 0.0008144378662109375 13.49044895172119 C -0.01992034912109375 6.032405853271484 5.998807907104492 0.000766754150390625 13.45186424255371 0.000766754150390625 Z"/></g></g><g class="e" transform="translate(0 0)"><g class="f" transform="translate(2.503 2.503)"><path class="m" d="M13.49,0A13.618,13.618,0,0,1,27.055,13.565a13.437,13.437,0,0,1-13.489,13.49A13.618,13.618,0,0,1,0,13.49,13.437,13.437,0,0,1,13.49,0Z"/><path class="n" d="M 13.45186519622803 2.000768661499023 C 10.38167572021484 2.000768661499023 7.500534057617188 3.194389343261719 5.339204788208008 5.361740112304688 C 3.177864074707031 7.529088973999023 1.992275238037109 10.41393852233887 2.000804901123047 13.48488903045654 C 2.018505096435547 19.84704971313477 7.208835601806641 25.03738975524902 13.57163524627686 25.05500984191895 L 13.60364437103271 25.05504989624023 C 16.67384338378906 25.05504989624023 19.55497360229492 23.86142921447754 21.7163143157959 21.6940803527832 C 23.87763404846191 19.52672958374023 25.06323432922363 16.64188003540039 25.05469512939453 13.57093906402588 C 25.0370044708252 7.208768844604492 19.8466854095459 2.018428802490234 13.48387432098389 2.000808715820313 L 13.45186519622803 2.000768661499023 M 13.45186424255371 0.000766754150390625 C 13.46462249755859 0.000766754150390625 13.47736740112305 0.0007839202880859375 13.49013519287109 0.000820159912109375 C 20.96085548400879 0.02150917053222656 27.03391456604004 6.094570159912109 27.05468559265137 13.56537914276123 C 27.07542991638184 21.02341079711914 21.05670166015625 27.05505180358887 13.60364532470703 27.05505180358887 C 13.59088706970215 27.05505180358887 13.5781421661377 27.05503463745117 13.56537437438965 27.05499839782715 C 6.094654083251953 27.03430938720703 0.02159500122070313 20.96125030517578 0.0008144378662109375 13.49044895172119 C -0.01992034912109375 6.032405853271484 5.998807907104492 0.000766754150390625 13.45186424255371 0.000766754150390625 Z"/></g></g><g class="g" transform="translate(0 14.552)"><g class="f" transform="translate(2.463 -12.255)"><path class="m" d="M13.49,0A13.618,13.618,0,0,1,27.055,13.565a13.437,13.437,0,0,1-13.489,13.49A13.618,13.618,0,0,1,0,13.49,13.437,13.437,0,0,1,13.49,0Z"/><path class="n" d="M 13.45186519622803 2.000768661499023 C 10.38167572021484 2.000768661499023 7.500534057617188 3.194389343261719 5.339204788208008 5.361740112304688 C 3.177864074707031 7.529088973999023 1.992275238037109 10.41393852233887 2.000804901123047 13.48488903045654 C 2.018505096435547 19.84704971313477 7.208835601806641 25.03738975524902 13.57163524627686 25.05500984191895 L 13.60364437103271 25.05504989624023 C 16.67384338378906 25.05504989624023 19.55497360229492 23.86142921447754 21.7163143157959 21.6940803527832 C 23.87763404846191 19.52672958374023 25.06323432922363 16.64188003540039 25.05469512939453 13.57093906402588 C 25.0370044708252 7.208768844604492 19.8466854095459 2.018428802490234 13.48387432098389 2.000808715820313 L 13.45186519622803 2.000768661499023 M 13.45186424255371 0.000766754150390625 C 13.46462249755859 0.000766754150390625 13.47736740112305 0.0007839202880859375 13.49013519287109 0.000820159912109375 C 20.96085548400879 0.02150917053222656 27.03391456604004 6.094570159912109 27.05468559265137 13.56537914276123 C 27.07542991638184 21.02341079711914 21.05670166015625 27.05505180358887 13.60364532470703 27.05505180358887 C 13.59088706970215 27.05505180358887 13.5781421661377 27.05503463745117 13.56537437438965 27.05499839782715 C 6.094654083251953 27.03430938720703 0.02159500122070313 20.96125030517578 0.0008144378662109375 13.49044895172119 C -0.01992034912109375 6.032405853271484 5.998807907104492 0.000766754150390625 13.45186424255371 0.000766754150390625 Z"/></g></g></g><path class="b" d="M5.725.6A1,1,0,0,1,7.064.6l3.792,3.42a1,1,0,0,1-.67,1.743H2.6a1,1,0,0,1-.67-1.743Z" transform="translate(13.118 24.044) rotate(-169)"/></g><g transform="translate(20.048 14.839)"><line class="h" y2="6.278"/><line class="h" x1="5.022" y1="5.022" transform="translate(0 6.278)"/></g></g><rect class="i" width="26" height="26.174" rx="2" transform="translate(586 608.602)"/><g transform="translate(548 595.416)"><path class="j" d="M30.662,36.942A19.809,19.809,0,0,1,20,40" transform="translate(1 -0.375)"/><path class="k" d="M20,39.624A19.813,19.813,0,1,1,20,0,20.1,20.1,0,0,1,38.062,11.374"/></g><text class="l" transform="translate(599 619.816)"><tspan x="-9.519" y="0">EID</tspan></text><text class="l" transform="translate(599 631.624)"><tspan x="-10.664" y="0">UID</tspan></text></g></svg>