<svg xmlns="http://www.w3.org/2000/svg" xmlns:xlink="http://www.w3.org/1999/xlink" width="64" height="40" viewBox="0 0 64 40"><defs><style>.a{fill:#fff;}.b{fill:#dbd9d9;}.c{fill:#b5b1b1;}.d,.e,.f,.g{fill:none;stroke-linecap:round;}.d{stroke:#b5b1b1;}.e{stroke:#137eb2;}.f,.g{stroke:#707070;}.g{stroke-dasharray:2 3;}.h{clip-path:url(#a);}.i{fill:url(#b);}</style><clipPath id="a"><path class="a" d="M6.514,17.345.586,11.417a2,2,0,0,1,0-2.829L.677,8.5a2,2,0,0,1,2.829,0L8,12.988,20.4.586a2,2,0,0,1,2.829,0l.091.09a2,2,0,0,1,0,2.829L9.479,17.345a2,2,0,0,1-1.472.584l-.078,0A1.994,1.994,0,0,1,6.514,17.345Z"/></clipPath><linearGradient id="b" y1="0.5" x2="1" y2="0.5" gradientUnits="objectBoundingBox"><stop offset="0" stop-color="#19b0dc"/><stop offset="1" stop-color="#020b50"/></linearGradient></defs><g transform="translate(-260 -548)"><circle class="b" cx="15" cy="15" r="15" transform="translate(260 548)"/><rect class="a" width="39.915" height="24" rx="4" transform="translate(272 552)"/><path class="c" d="M25.466,53.033a4.755,4.755,0,0,0-.081-6.583,4.522,4.522,0,0,0-6.448,0,4.755,4.755,0,0,0-.081,6.583,7.167,7.167,0,0,0-3.685,6.286,1.124,1.124,0,1,0,2.247,0,4.745,4.745,0,1,1,9.487,0,1.124,1.124,0,1,0,2.247,0A7.167,7.167,0,0,0,25.466,53.033Zm-5.645-3.239a2.342,2.342,0,1,1,2.341,2.391A2.366,2.366,0,0,1,19.821,49.793Z" transform="translate(260.809 510.885)"/><g transform="translate(293.445 557.97)"><line class="d" x2="12.266"/><line class="d" x2="12.266" transform="translate(0 4)"/><line class="d" x2="12.266" transform="translate(0 12)"/><line class="d" x2="12.266" transform="translate(0 8)"/></g><path class="e" d="M1867.882,1262v-12a3.847,3.847,0,0,0-4.188-4h-33.506a3.95,3.95,0,0,0-4.188,4v16a3.9,3.9,0,0,0,4.188,4H1846" transform="translate(-1554.046 -694)"/><line class="f" y2="20" transform="translate(268 563.915)"/><line class="f" y2="12" transform="translate(317.915 559.964)"/><line class="g" y2="6" transform="translate(317.915 552)"/><path class="b" d="M6.514,17.345.586,11.417a2,2,0,0,1,0-2.829L.677,8.5a2,2,0,0,1,2.829,0L8,12.988,20.4.586a2,2,0,0,1,2.829,0l.091.09a2,2,0,0,1,0,2.829L9.479,17.345a2,2,0,0,1-1.472.584l-.078,0A1.994,1.994,0,0,1,6.514,17.345Z" transform="translate(292.01 570.069)"/><g class="h" transform="translate(300.095 570.069)"><rect class="i" width="25.8" height="19.608" transform="translate(-1.005 -0.672)"/></g></g></svg>