<svg xmlns="http://www.w3.org/2000/svg" xmlns:xlink="http://www.w3.org/1999/xlink" width="64.5" height="41" viewBox="0 0 64.5 41"><defs><style>.a{fill:#fff;}.b{fill:#dbd9d9;}.c{clip-path:url(#a);}.d{fill:url(#b);}.e,.f,.h{fill:none;stroke-linecap:round;}.e,.f{stroke:#137eb2;}.f{stroke-linejoin:round;}.g{fill:#5c5958;}.h{stroke:#fff;}</style><clipPath id="a"><path class="a" d="M6.514,17.345.586,11.417a2,2,0,0,1,0-2.829L.677,8.5a2,2,0,0,1,2.829,0L8,12.988,20.4.586a2,2,0,0,1,2.829,0l.091.09a2,2,0,0,1,0,2.829L9.479,17.345a2,2,0,0,1-1.472.584l-.078,0A1.994,1.994,0,0,1,6.514,17.345Z"/></clipPath><linearGradient id="b" y1="0.5" x2="1" y2="0.5" gradientUnits="objectBoundingBox"><stop offset="0" stop-color="#19b0dc"/><stop offset="1" stop-color="#020b50"/></linearGradient></defs><g transform="translate(-547.5 -645.138)"><g transform="translate(-176 370.638)"><path class="b" d="M6.514,17.345.586,11.417a2,2,0,0,1,0-2.829L.677,8.5a2,2,0,0,1,2.829,0L8,12.988,20.4.586a2,2,0,0,1,2.829,0l.091.09a2,2,0,0,1,0,2.829L9.479,17.345a2,2,0,0,1-1.472.584l-.078,0A1.994,1.994,0,0,1,6.514,17.345Z" transform="translate(756.01 297.069)"/><g class="c" transform="translate(764.095 297.069)"><rect class="d" width="25.8" height="19.608" transform="translate(-1.005 -0.672)"/></g></g><g transform="translate(-76 201.638)"><path class="e" d="M30.667,36.942A19.82,19.82,0,0,1,20,40" transform="translate(625 444)"/><path class="e" d="M40,20a20.227,20.227,0,0,1-2.056,8.842" transform="translate(624 445)"/><path class="f" d="M20,40A20,20,0,1,1,40,20" transform="translate(624 444)"/></g><rect class="g" width="18" height="32" rx="2" transform="translate(559 650)"/><rect class="a" width="16" height="25" rx="1" transform="translate(560 653)"/><circle class="a" cx="1" cy="1" r="1" transform="translate(567 679)"/><line class="h" x2="6" transform="translate(565.5 651.5)"/></g></svg>